HIERARCHY
ROOT hip
{
	OFFSET 0.000000 0.000000 0.000000 
	CHANNELS 6 Xposition Yposition Zposition Xrotation Zrotation Yrotation
	JOINT abdomen
	{
		OFFSET 0.000000 3.402643 0.000000 
		CHANNELS 3 Xrotation Zrotation Yrotation
		JOINT chest
		{
			OFFSET 0.000000 8.438565 -0.680529 
			CHANNELS 3 Xrotation Zrotation Yrotation
			JOINT neck
			{
				OFFSET 0.000000 10.207942 -0.272212 
				CHANNELS 3 Xrotation Zrotation Yrotation
				JOINT head
				{
					OFFSET 0.000000 3.130431 0.000000 
					CHANNELS 3 Xrotation Zrotation Yrotation
					End Site
					{
						OFFSET 0.000000 3.130435 0.000000 
					}
				}
			}
			JOINT lCollar
			{
				OFFSET 3.470700 6.669187 -0.816635 
				CHANNELS 3 Yrotation Zrotation Xrotation
				JOINT lShldr
				{
					OFFSET 3.198488 0.000000 0.000000 
					CHANNELS 3 Zrotation Yrotation Xrotation
					JOINT lForeArm
					{
						OFFSET 10.139888 0.000000 0.000000 
						CHANNELS 3 Yrotation Zrotation Xrotation
						JOINT lHand
						{
							OFFSET 8.370511 0.000000 0.000000 
							CHANNELS 3 Zrotation Yrotation Xrotation
							End Site
							{
								OFFSET 4.083176 0.000000 0.000000 
							}
						}
					}
				}
			}
			JOINT rCollar
			{
				OFFSET -3.470700 6.669187 -0.816635 
				CHANNELS 3 Yrotation Zrotation Xrotation
				JOINT rShldr
				{
					OFFSET -3.198488 0.000000 0.000000 
					CHANNELS 3 Zrotation Yrotation Xrotation
					JOINT rForeArm
					{
						OFFSET -10.139888 0.000000 0.000000 
						CHANNELS 3 Yrotation Zrotation Xrotation
						JOINT rHand
						{
							OFFSET -8.370511 0.000000 0.000000 
							CHANNELS 3 Zrotation Yrotation Xrotation
							End Site
							{
								OFFSET -4.083176 0.000000 0.000000 
							}
						}
					}
				}
			}
		}
	}
	JOINT lThigh
	{
		OFFSET 5.308129 -1.633274 1.361059 
		CHANNELS 3 Xrotation Zrotation Yrotation
		JOINT lShin
		{
			OFFSET -2.041588 -20.007561 0.000000 
			CHANNELS 3 Xrotation Zrotation Yrotation
			JOINT lFoot
			{
				OFFSET 0.000000 -19.190928 -1.224953 
				CHANNELS 3 Xrotation Yrotation Zrotation
				End Site
				{
					OFFSET 0.000000 -2.449906 4.627600 
				}
			}
		}
	}
	JOINT rThigh
	{
		OFFSET -5.308129 -1.633274 1.361059 
		CHANNELS 3 Xrotation Zrotation Yrotation
		JOINT rShin
		{
			OFFSET 2.041588 -20.007561 0.000000 
			CHANNELS 3 Xrotation Zrotation Yrotation
			JOINT rFoot
			{
				OFFSET 0.000000 -19.190928 -1.224953 
				CHANNELS 3 Xrotation Yrotation Zrotation
				End Site
				{
					OFFSET 0.000000 -2.449906 4.627600 
				}
			}
		}
	}
}
MOTION
Frames: 18
Frame Time: 0.016667
0.147375 42.858414 0.767977 -0.824090 5.487720 -1.162440 -19.886400 -1.561790 1.758890 19.354500 2.353000 0.556146 22.653000 3.020340 -5.097530 16.234699 4.232180 -1.668490 2.000000 -2.000000 0.000000 -70.574402 -21.159599 -170.712006 28.623400 -0.334856 0.065554 0.044646 -0.002024 -137.643997 -2.000000 2.000000 0.000000 75.249298 20.310400 -166.707001 -33.906601 0.328316 0.076269 -0.057320 0.030470 -147.869003 6.158041 -6.671948 -1.747321 3.482553 4.185086 0.104905 -13.192504 12.794717 3.019375 2.410005 -6.290220 -4.673038 10.650009 -7.453029 -0.555548 -17.935366 -1.318448 0.779974 
0.109720 42.863808 0.717248 -0.715932 5.282790 -1.344940 -19.962400 -1.433660 1.850430 19.286100 2.323650 0.622348 22.851900 2.612220 -4.554970 16.360901 4.172630 -1.368880 2.000000 -2.000000 0.000000 -69.150497 -23.121901 -170.449997 29.511999 -0.333826 0.067407 0.044671 -0.003501 -138.171997 -2.000000 2.000000 0.000000 74.411499 22.040199 -167.250000 -34.189800 0.327938 0.076829 -0.057683 0.032293 -148.533005 5.880719 -6.288111 -1.168101 3.659189 4.176581 0.124011 -13.067334 12.468561 2.976693 2.382811 -6.016888 -4.077740 10.260199 -7.102566 -0.519511 -17.712210 -1.614790 0.591442 
0.093604 42.889534 0.710161 -0.774679 5.204610 -1.437180 -19.951700 -1.379920 1.882510 19.344801 2.265120 0.645492 23.164200 1.488250 -3.937530 16.520000 3.750130 -0.991319 2.000000 -2.000000 0.000000 -67.628799 -24.723101 -170.270996 30.664400 -0.332448 0.069786 0.044681 -0.003938 -138.328003 -2.000000 2.000000 0.000000 73.534798 23.789600 -167.830994 -34.580399 0.327411 0.077598 -0.058080 0.034166 -149.216995 6.038477 -6.249795 -1.565976 3.471170 4.182812 0.124578 -13.085691 12.855598 3.048169 2.389495 -5.854756 -3.945649 10.233943 -7.088095 -0.507678 -17.593485 -1.900882 0.497236 
0.058589 42.916416 0.624558 -0.764908 5.233910 -1.163240 -20.021299 -1.437500 1.812430 19.120001 2.235630 0.598286 23.652201 0.570750 -3.516560 16.787500 3.345550 -0.702640 2.000000 -2.000000 0.000000 -66.195900 -26.628201 -170.647003 31.543301 -0.331364 0.071581 0.044706 -0.004840 -138.649994 -2.000000 2.000000 0.000000 72.804802 25.578300 -168.516006 -34.844101 0.327053 0.078115 -0.058115 0.034326 -149.274994 5.992831 -6.117503 -1.025154 3.857622 4.183164 0.143839 -13.186164 12.234502 2.923550 2.340425 -5.785535 -3.782932 10.203295 -6.977298 -0.508951 -17.720959 -2.419210 0.311303 
0.091429 42.934410 0.694170 -0.862946 5.214260 -1.894510 -19.880100 -1.323830 2.171000 19.530600 2.079750 0.792862 23.981800 0.065968 -2.952620 17.010500 3.208860 -0.378995 2.000000 -2.000000 0.000000 -64.674896 -28.463900 -170.526001 32.344101 -0.330354 0.073203 0.044767 -0.006562 -139.266006 -2.000000 2.000000 0.000000 71.801598 27.366800 -169.087997 -35.078499 0.326733 0.078574 -0.058127 0.034380 -149.294998 6.179260 -6.281378 -1.234235 3.357332 4.185968 0.095201 -13.034272 13.130594 3.141876 2.369596 -6.000381 -3.850142 10.146845 -6.709619 -0.499264 -17.559961 -1.773785 0.358901 
0.065611 42.965267 0.660545 -1.078310 4.989360 -1.987970 -19.838800 -1.170610 2.218100 19.442600 2.099210 0.838122 24.087000 -0.445745 -2.519230 17.067600 3.103340 -0.136262 2.000000 -2.000000 0.000000 -63.153900 -30.152399 -170.141006 33.652699 -0.328653 0.075821 0.045010 -0.010985 -140.848007 -2.000000 2.000000 0.000000 70.681297 29.077400 -169.768005 -35.430099 0.326248 0.079259 -0.058275 0.035047 -149.539001 6.352633 -6.039834 -1.296908 3.387382 4.187789 0.114687 -13.028586 13.333217 3.204560 2.539934 -5.538235 -3.127139 10.117365 -6.648024 -0.504086 -17.559118 -2.420457 0.191873 
0.056754 42.970428 0.653432 -1.206070 5.164880 -2.041740 -19.790800 -1.185950 2.149280 19.510900 2.206660 0.799606 24.313400 -1.134990 -2.010750 17.240900 2.910610 0.160659 2.000000 -2.000000 0.000000 -61.623299 -31.570200 -170.895004 34.375401 -0.327688 0.077250 0.045097 -0.012185 -141.276993 -2.000000 2.000000 0.000000 69.610100 31.010900 -169.738998 -35.723000 0.325842 0.079827 -0.058610 0.036513 -150.076004 6.711233 -6.405152 -2.268721 2.933983 4.185679 0.086325 -13.048616 14.181990 3.355998 2.397480 -5.993083 -4.036500 10.602888 -6.709536 -0.537219 -17.523291 -1.452012 0.464224 
0.040230 42.965027 0.636630 -1.177210 5.457840 -1.937650 -19.762800 -1.295310 2.135660 19.618401 2.226260 0.774126 24.330099 -1.408080 -1.575140 17.270000 2.900700 0.384519 2.000000 -2.000000 0.000000 -59.897999 -33.183601 -171.750000 35.293301 -0.326437 0.079048 0.045105 -0.012295 -141.315994 -2.000000 2.000000 0.000000 68.539398 32.916199 -170.164001 -35.986698 0.325473 0.080337 -0.058647 0.036673 -150.134995 6.612338 -6.686618 -2.191581 2.960899 4.178670 0.086401 -12.917211 14.082323 3.283933 2.178039 -6.248689 -4.013136 10.953528 -6.889475 -0.568436 -17.702309 -1.589505 0.506068 
0.013045 42.968369 0.619586 -1.285330 5.555250 -1.813320 -19.754900 -1.296200 1.938520 19.579201 2.411760 0.681558 24.623100 -1.920650 -1.059540 17.493299 2.783560 0.681096 2.000000 -2.000000 0.000000 121.670998 -145.378006 7.110280 35.859699 -0.325651 0.080147 0.045237 -0.013903 -141.891998 -2.000000 2.000000 0.000000 67.390602 34.771702 -170.188004 -36.367599 0.324937 0.081071 -0.058869 0.037604 -150.475998 6.724251 -6.744276 -2.183336 2.925170 4.191840 0.086316 -13.060665 13.886437 3.257156 2.406753 -6.269709 -3.784260 10.746799 -6.865803 -0.532890 -17.669050 -2.031485 0.388388 
0.009554 42.946377 0.618454 -1.294640 5.320920 -1.662530 -19.755501 -1.266130 1.823980 19.628099 2.314150 0.636364 24.701300 -2.568590 -0.845120 17.568399 2.545150 0.823029 2.000000 -2.000000 0.000000 123.718002 -143.737000 6.963450 36.435902 -0.324840 0.081257 0.045614 -0.017712 -143.259995 -2.000000 2.000000 0.000000 66.290901 36.540100 -170.520004 -36.611698 0.324590 0.081539 -0.058761 0.037152 -150.309998 6.661090 -6.328704 -1.439449 3.066738 4.198819 0.086524 -12.847893 13.172781 3.106587 2.515291 -5.980128 -3.855813 10.615110 -6.854946 -0.548127 -17.662329 -2.097318 0.340122 
0.000087 42.943802 0.608777 -1.343280 5.135310 -1.526020 -19.745300 -1.154690 1.731810 19.667200 2.343470 0.608191 24.713400 -2.719250 -0.413451 17.588900 2.620840 1.037530 2.000000 -2.000000 0.000000 125.266998 -141.910004 6.430560 36.582401 -0.324632 0.081538 0.045781 -0.019152 -143.776993 -2.000000 2.000000 0.000000 64.731903 38.015301 -170.751007 -37.236698 0.323694 0.082732 -0.059005 0.038162 -150.682007 6.698599 -6.067484 -1.451156 3.085162 4.197433 0.085851 -12.672103 13.030180 3.031263 2.763994 -5.633887 -3.446317 10.305534 -6.755846 -0.534954 -17.705284 -2.448696 0.228056 
-0.004804 42.920132 0.584785 -1.097650 4.833100 -1.547240 -19.783400 -1.037180 1.711540 19.784500 2.275180 0.613902 24.972700 -3.168890 -0.204127 17.802299 2.494700 1.172940 2.000000 -2.000000 0.000000 126.981003 -140.363998 5.414890 37.187901 -0.323765 0.082694 0.045912 -0.020211 -144.158005 -2.000000 2.000000 0.000000 63.241901 39.637299 -171.167007 -37.627300 0.323128 0.083472 -0.059156 0.038773 -150.906006 6.590820 -5.801327 -2.170842 2.680156 4.202219 0.077020 -12.609336 13.742055 3.152533 2.579887 -5.441016 -3.580919 10.063160 -6.516151 -0.502973 -17.492813 -2.179999 0.174336 
-0.009116 42.933514 0.577944 -1.215100 4.745030 -1.545500 -19.685600 -1.091080 1.790190 19.843300 2.099450 0.647711 25.109400 -3.741850 -0.198783 17.935600 2.199100 1.213540 2.000000 -2.000000 0.000000 128.792999 -138.731003 4.344480 37.539501 -0.323256 0.083360 0.045950 -0.020509 -144.266006 -2.000000 2.000000 0.000000 61.820499 41.191601 -171.792007 -38.096100 0.322441 0.084355 -0.059410 0.039781 -151.276993 6.536136 -5.567707 -1.303209 3.046603 4.200940 0.076118 -12.498333 13.005691 3.006325 2.630828 -5.327162 -3.776498 10.236918 -6.626544 -0.514446 -17.605913 -1.927067 0.293620 
-0.018904 42.920406 0.573986 -1.087590 4.667130 -1.562820 -19.743500 -1.054990 1.830900 19.853100 2.050630 0.677964 24.968300 -3.716980 0.040801 17.916800 2.265690 1.326860 2.000000 -2.000000 0.000000 130.518005 -137.391006 3.322140 37.959400 -0.322643 0.084153 0.046131 -0.021864 -144.753998 -2.000000 2.000000 0.000000 -119.727997 137.391006 7.723290 -38.428101 0.321951 0.084977 -0.059512 0.040178 -151.423996 6.489902 -5.561197 -1.816434 2.814352 4.196608 0.086762 -12.592381 13.496426 3.120545 2.633361 -5.264876 -3.701724 9.916159 -6.471993 -0.487421 -17.456020 -2.039608 0.176952 
-0.021042 42.926952 0.568278 -1.156270 4.725600 -1.657450 -19.694201 -1.092400 1.925780 19.872601 1.962750 0.718774 24.978600 -3.722990 0.198403 17.995001 2.264750 1.417840 2.000000 -2.000000 0.000000 132.212997 -136.039993 2.033110 38.349998 -0.322067 0.084886 0.046217 -0.022487 -144.977997 -2.000000 2.000000 0.000000 -121.168999 136.052002 7.059400 -38.867599 0.321296 0.085796 -0.059485 0.040072 -151.384995 6.570069 -5.642420 -1.767003 2.870542 4.193091 0.066549 -12.841563 13.533823 3.194471 2.617388 -5.333605 -3.758018 10.064194 -6.514545 -0.502768 -17.467060 -1.930331 0.249736 
-0.019924 42.923481 0.553692 -1.097690 4.852630 -1.772220 -19.674101 -1.105390 2.002380 19.941000 1.992070 0.750097 24.978300 -4.190660 0.244411 18.080500 2.055300 1.466780 2.000000 -2.000000 0.000000 134.024994 -134.826004 0.746841 38.721100 -0.321515 0.085578 0.046362 -0.023489 -145.339996 -2.000000 2.000000 0.000000 -122.197998 134.358002 5.139660 -38.828499 0.321355 0.085723 -0.057845 0.033070 -148.815994 6.441618 -5.758852 -1.461116 2.927285 4.190362 0.086147 -12.629449 13.280907 3.101701 2.463913 -5.536587 -3.926801 10.114358 -6.472504 -0.500584 -17.395351 -1.714265 0.273165 
-0.033697 42.923481 0.554034 -1.117380 4.911180 -1.843370 -19.468700 -1.106400 2.027210 20.243900 2.050750 0.760302 24.802000 -4.264660 0.430421 18.109600 2.036030 1.560730 2.000000 -2.000000 0.000000 135.720001 -133.531998 -1.088870 38.974998 -0.321135 0.086050 0.046366 -0.023516 -145.348999 -2.000000 2.000000 0.000000 -124.183998 132.843002 4.642570 -39.053101 0.321018 0.086140 -0.058499 0.036034 -149.899994 6.608227 -5.935596 -2.140167 2.628994 4.188753 0.086979 -12.773595 13.971483 3.273042 2.477785 -5.531585 -3.659571 10.134005 -6.497160 -0.512467 -17.483046 -1.856660 0.268851 
-0.041134 42.929523 0.537203 -1.196060 5.057500 -1.823790 -19.313000 -1.145910 2.004960 20.341700 2.109360 0.744045 24.543900 -4.215830 0.665315 18.119900 2.083280 1.680400 2.000000 -2.000000 0.000000 137.542007 -132.356003 -2.853720 39.258202 -0.320709 0.086574 0.046560 -0.024786 -145.807999 -2.000000 2.000000 0.000000 -125.867996 131.317001 3.589110 -39.277699 0.320679 0.086556 -0.058761 0.037152 -150.309998 6.506847 -5.991807 -1.497117 2.997340 4.188706 0.085904 -12.680449 13.415864 3.134305 2.438577 -5.670042 -3.711841 10.364738 -6.571782 -0.512887 -17.622932 -1.951656 0.268187 
